HIERARCHY
ROOT Hips
{
  OFFSET 0.0 0.0 0.0
  CHANNELS 6 Xposition Yposition Zposition Zrotation Yrotation Xrotation
  JOINT LHipJoint
  {
    OFFSET 0.0 0.0 0.0
    CHANNELS 3 Zrotation Yrotation Xrotation
    JOINT LeftUpLeg
    {
      OFFSET 1.363059998 -1.794630051 0.839290023
      CHANNELS 3 Zrotation Yrotation Xrotation
      JOINT LeftLeg
      {
        OFFSET 2.448110104 -6.726130009 0.0
        CHANNELS 3 Zrotation Yrotation Xrotation
        JOINT LeftFoot
        {
          OFFSET 2.562200069 -7.039589882 0.0
          CHANNELS 3 Zrotation Yrotation Xrotation
          JOINT LeftToeBase
          {
            OFFSET 0.157639995 -0.433109999 2.322550058
            CHANNELS 3 Zrotation Yrotation Xrotation
            End Site
            {
              OFFSET 0.0 -0.0 1.189659953
            }
          }
        }
      }
    }
  }
  JOINT RHipJoint
  {
    OFFSET 0.0 0.0 0.0
    CHANNELS 3 Zrotation Yrotation Xrotation
    JOINT RightUpLeg
    {
      OFFSET -1.305520058 -1.794630051 0.839290023
      CHANNELS 3 Zrotation Yrotation Xrotation
      JOINT RightLeg
      {
        OFFSET -2.54253006 -6.985549927 0.0
        CHANNELS 3 Zrotation Yrotation Xrotation
        JOINT RightFoot
        {
          OFFSET -2.568259954 -7.056230068 0.0
          CHANNELS 3 Zrotation Yrotation Xrotation
          JOINT RightToeBase
          {
            OFFSET -0.164729998 -0.452589989 2.363149881
            CHANNELS 3 Zrotation Yrotation Xrotation
            End Site
            {
              OFFSET -0.0 -0.0 1.21081996
            }
          }
        }
      }
    }
  }
  JOINT LowerBack
  {
    OFFSET 0.0 0.0 0.0
    CHANNELS 3 Zrotation Yrotation Xrotation
    JOINT Spine
    {
      OFFSET 0.028270001 2.035589933 -0.193379998
      CHANNELS 3 Zrotation Yrotation Xrotation
      JOINT Spine1
      {
        OFFSET 0.05672 2.04885006 -0.042750001
        CHANNELS 3 Zrotation Yrotation Xrotation
        JOINT Neck
        {
          OFFSET 0.0 0.0 0.0
          CHANNELS 3 Zrotation Yrotation Xrotation
          JOINT Neck1
          {
            OFFSET -0.054170001 1.74624002 0.172020003
            CHANNELS 3 Zrotation Yrotation Xrotation
            JOINT Head
            {
              OFFSET 0.10407 1.761360049 -0.123970002
              CHANNELS 3 Zrotation Yrotation Xrotation
              End Site
              {
                OFFSET 0.0372 1.770439982 -0.062410001
              }
            }
          }
        }
        JOINT LeftShoulder
        {
          OFFSET 0.0 0.0 0.0
          CHANNELS 3 Zrotation Yrotation Xrotation
          JOINT LeftArm
          {
            OFFSET 3.362410069 1.200889945 -0.311210006
            CHANNELS 3 Zrotation Yrotation Xrotation
            JOINT LeftForeArm
            {
              OFFSET 4.982999802 -0.0 -0.0
              CHANNELS 3 Zrotation Yrotation Xrotation
              JOINT LeftHand
              {
                OFFSET 3.483560085 -0.0 -0.0
                CHANNELS 3 Zrotation Yrotation Xrotation
                JOINT LeftFingerBase
                {
                  OFFSET 0.0 0.0 0.0
                  CHANNELS 3 Zrotation Yrotation Xrotation
                  JOINT LeftHandIndex1
                  {
                    OFFSET 0.715260029 -0.0 -0.0
                    CHANNELS 3 Zrotation Yrotation Xrotation
                    End Site
                    {
                      OFFSET 0.576659977 -0.0 -0.0
                    }
                  }
                }
                JOINT LThumb
                {
                  OFFSET 0.0 0.0 0.0
                  CHANNELS 3 Zrotation Yrotation Xrotation
                  End Site
                  {
                    OFFSET 0.585470021 -0.0 0.585470021
                  }
                }
              }
            }
          }
        }
        JOINT RightShoulder
        {
          OFFSET 0.0 0.0 0.0
          CHANNELS 3 Zrotation Yrotation Xrotation
          JOINT RightArm
          {
            OFFSET -3.136600018 1.374050021 -0.404650003
            CHANNELS 3 Zrotation Yrotation Xrotation
            JOINT RightForeArm
            {
              OFFSET -5.241899967 -0.0 -0.0
              CHANNELS 3 Zrotation Yrotation Xrotation
              JOINT RightHand
              {
                OFFSET -3.444169998 -0.0 -0.0
                CHANNELS 3 Zrotation Yrotation Xrotation
                JOINT RightFingerBase
                {
                  OFFSET 0.0 0.0 0.0
                  CHANNELS 3 Zrotation Yrotation Xrotation
                  JOINT RightHandIndex1
                  {
                    OFFSET -0.622529984 -0.0 -0.0
                    CHANNELS 3 Zrotation Yrotation Xrotation
                    End Site
                    {
                      OFFSET -0.501900017 -0.0 -0.0
                    }
                  }
                }
                JOINT RThumb
                {
                  OFFSET 0.0 0.0 0.0
                  CHANNELS 3 Zrotation Yrotation Xrotation
                  End Site
                  {
                    OFFSET -0.509559989 -0.0 0.509559989
                  }
                }
              }
            }
          }
        }
      }
    }
  }
}
MOTION
Frames: 5
Frame Time: 0.0083333
12.389222145 28.184799194 38.651298523 -1.682899833 -1.222399831 -41.004497528 0.0 -0.0 0.0 -2.474300385 -0.792500377 -31.466705322 19.093597412 19.980306625 87.349090576 0.149599999 -8.796500206 14.99919796 0.0002 -0.082099997 -0.225700006 0.0 -0.0 0.0 16.671300888 4.53000021 -30.763196945 -11.485501289 -18.16460228 64.348510742 0.844299972 -20.446401596 6.102599621 -1.180100083 -6.894599915 19.403499603 -7.921599865 0.983100712 36.38710022 -2.144500256 -1.728699803 13.067399025 2.436399698 -1.102099895 -3.391699314 -17.434196472 -12.494501114 10.596899986 13.896201134 -18.866399765 3.82240057 6.66779995 -9.830799103 2.418400049 0.0 -0.0 0.0 21.383499146 -32.314907074 -43.679702759 82.312835693 -59.775520325 -53.347728729 0.0 0.0 -5.727301121 -4.00740099 3.993799925 -0.279600054 -7.125 0.0 0.0 -24.4958992 33.119007111 7.755102634 0.0 -0.0 0.0 51.940998077 31.012901306 8.84239769 -136.100814819 50.217681885 -98.610603333 0.0 -0.0 13.310600281 -47.854507446 -2.519599676 2.781000137 7.125 -0.0 0.0 -17.218101501 -33.343196869 -5.119300365 
12.395522118 28.194599152 38.648399353 -1.55369997 -1.261699915 -41.063396454 0.0 -0.0 0.0 -2.581600189 -0.571600318 -31.175592422 19.009309769 19.976499557 87.102401733 0.133100316 -9.303001404 15.368700981 0.003800001 -0.399300009 -1.097100019 0.0 -0.0 0.0 16.540899277 4.422300339 -31.095602036 -11.300406456 -18.078998566 63.753292084 0.726699889 -19.935403824 6.878499508 -0.939199924 -6.172698975 17.28619957 -8.487898827 0.60989964 35.973297119 -2.015800476 -2.369100094 12.786801338 3.077799559 -1.437399745 -3.468899965 -19.040500641 -11.341400146 12.874201775 14.517101288 -17.791700363 2.500799179 7.381700516 -9.388902664 1.698500752 0.0 -0.0 0.0 19.629199982 -30.659801483 -42.020503998 82.702316284 -59.797809601 -53.684314728 0.0 0.0 -5.992100716 -3.968200684 4.126601219 -0.286000103 -7.125 0.0 0.0 -24.501901627 33.24250412 7.676503658 0.0 -0.0 0.0 51.013301849 33.378002167 8.890601158 -136.00668335 50.265701294 -98.53818512 0.0 -0.0 12.920401573 -47.88879776 -3.45539999 3.814699888 7.125 -0.0 0.0 -17.482902527 -34.674007416 -4.613002777 
12.399321556 28.201099396 38.643299103 -1.492600441 -1.455200434 -40.966995239 0.0 -0.0 0.0 -2.499500275 -0.248200268 -31.084501266 18.944290161 19.973304749 86.912117004 0.131799996 -9.564600945 15.670798302 0.007099999 -0.544399977 -1.496000051 0.0 -0.0 0.0 16.552000046 4.540999889 -31.595399857 -11.13659668 -18.001300812 63.224403381 0.726400077 -19.831802368 6.751400471 -0.921600103 -6.116399288 17.122501373 -7.750901222 0.91049999 35.823501587 -2.382699728 -1.698199511 13.532996178 2.078400135 -1.110400081 -2.70720005 -16.474498749 -12.626498222 10.065999031 14.055101395 -18.811302185 3.025001287 6.578000546 -9.769200325 2.181200027 0.0 -0.0 0.0 21.930294037 -31.616495132 -44.276489258 82.764816284 -59.801303864 -53.738315582 0.0 0.0 -6.069099426 -4.28910017 4.546099186 -0.340599954 -7.125 0.0 0.0 -24.858201981 33.605895996 7.566196918 0.0 -0.0 0.0 49.790397644 35.539505005 4.613502979 -135.885421753 50.327301025 -98.444915771 0.0 -0.0 12.795198441 -47.463695526 -4.20909977 4.57379961 7.125 -0.0 0.0 -17.32179451 -35.714290619 -4.108000755 
12.401221275 28.193899155 38.638500214 -1.384799838 -1.631999969 -40.789306641 0.0 -0.0 0.0 -2.410900354 0.142899975 -31.190103531 18.923906326 19.972202301 86.852401733 0.108999848 -9.972299576 15.857400894 0.0149 -0.789000034 -2.168499947 0.0 -0.0 0.0 16.467399597 4.789899826 -32.235397339 -10.994603157 -17.932498932 62.764205933 0.794699788 -19.957397461 6.062600613 -0.933299899 -6.153800488 17.231399536 -7.983900547 0.70730114 35.228401184 -2.290800095 -1.969000101 13.590901375 2.4150002 -1.270999908 -2.543400049 -17.160497665 -12.096199036 11.083598137 14.508798599 -18.235099792 1.819200039 6.973900795 -9.522500992 1.680199981 0.0 -0.0 0.0 20.907400131 -30.506496429 -43.588699341 83.570083618 -59.843193054 -54.434494019 0.0 0.0 -6.504300117 -4.485700607 4.946799755 -0.387599975 -7.125 0.0 0.0 -25.118398666 33.958297729 7.422100067 0.0 -0.0 0.0 48.416915894 38.055210114 3.565407276 -135.523284912 50.509487152 -98.165779114 0.0 -0.0 12.264600754 -47.022808075 -5.525699615 5.900201321 7.125 -0.0 0.0 -17.274499893 -37.52230072 -3.299100161 
12.408122063 28.191799164 38.630901337 -1.277000308 -1.667000294 -40.663204193 0.0 -0.0 0.0 -2.446699858 0.293000221 -31.124502182 18.898195267 19.970895767 86.777122498 0.122899927 -10.084299088 16.191898346 0.009499999 -0.630900025 -1.733800054 0.0 -0.0 0.0 16.310503006 4.877402306 -32.827606201 -10.844700813 -17.85830307 62.27640152 0.71480006 -19.514604568 6.490301132 -0.630699694 -5.081599712 14.141295433 -8.068701744 1.004800797 35.884208679 -2.069600105 -1.687700152 13.359297752 2.57000041 -1.120800257 -2.89460063 -16.925497055 -12.970299721 8.583099365 14.237200737 -19.139799118 3.252400637 6.532001019 -9.883000374 2.59409976 0.0 -0.0 0.0 20.921201706 -30.574409485 -43.803909302 84.211578369 -59.872993469 -54.989173889 0.0 0.0 -6.819400787 -4.193900108 5.021000385 -0.36770007 -7.125 0.0 0.0 -24.918199539 34.043800354 7.294802666 0.0 -0.0 0.0 46.618808746 39.798007965 1.021105409 -134.95741272 50.789299011 -97.728317261 0.0 -0.0 11.974499702 -46.208202362 -7.627000809 7.882002354 7.125 -0.0 0.0 -17.061302185 -40.330001831 -2.032197952 
